<?xml version="1.0" encoding="UTF-8" standalone="no"?>
<svg
   width="355"
   height="310"
   version="1.0"
   id="svg1871"
   sodipodi:docname="decoration.svg"
   inkscape:version="1.2 (dc2aedaf03, 2022-05-15)"
   xmlns:inkscape="http://www.inkscape.org/namespaces/inkscape"
   xmlns:sodipodi="http://sodipodi.sourceforge.net/DTD/sodipodi-0.dtd"
   xmlns:xlink="http://www.w3.org/1999/xlink"
   xmlns="http://www.w3.org/2000/svg"
   xmlns:svg="http://www.w3.org/2000/svg">
  <sodipodi:namedview
     id="namedview1873"
     pagecolor="#ffffff"
     bordercolor="#000000"
     borderopacity="0.25"
     inkscape:showpageshadow="2"
     inkscape:pageopacity="0.0"
     inkscape:pagecheckerboard="0"
     inkscape:deskcolor="#d1d1d1"
     showgrid="false"
     inkscape:zoom="1.0013544"
     inkscape:cx="-171.26803"
     inkscape:cy="87.88097"
     inkscape:window-width="2560"
     inkscape:window-height="1022"
     inkscape:window-x="1280"
     inkscape:window-y="24"
     inkscape:window-maximized="1"
     inkscape:current-layer="g1869" />
  <defs
     id="defs1749">
    <linearGradient
       id="shadow_active">
      <stop
         stop-opacity=".92169"
         offset="0"
         id="stop1711" />
      <stop
         stop-opacity=".74096"
         offset=".125"
         id="stop1713" />
      <stop
         stop-opacity=".60241"
         offset=".25"
         id="stop1715" />
      <stop
         stop-opacity=".33133"
         offset=".5"
         id="stop1717" />
      <stop
         stop-opacity=".10843"
         offset=".75"
         id="stop1719" />
      <stop
         stop-opacity=".039216"
         offset=".875"
         id="stop1721" />
      <stop
         stop-opacity="0"
         offset="1"
         id="stop1723" />
    </linearGradient>
    <linearGradient
       id="linearGradient5688"
       x1="398"
       x2="398"
       y1="138.14"
       y2="221.16"
       gradientTransform="matrix(1 0 0 1.0118 0 137.24)"
       gradientUnits="userSpaceOnUse"
       xlink:href="#shadow_active" />
    <linearGradient
       id="linearGradient6612"
       x1="396"
       x2="396"
       y1="64.167"
       y2="14.583"
       gradientTransform="matrix(1 0 0 1.0286 -215 50)"
       gradientUnits="userSpaceOnUse"
       xlink:href="#shadow_active" />
    <linearGradient
       id="linearGradient5688-2"
       x1="398"
       x2="398"
       y1="138.14"
       y2="171.74"
       gradientTransform="matrix(1 0 0 1.0118 0 137.16)"
       gradientUnits="userSpaceOnUse"
       xlink:href="#shadow_inactive" />
    <linearGradient
       id="shadow_inactive">
      <stop
         offset="0"
         id="stop1729" />
      <stop
         stop-opacity=".63855"
         offset=".25"
         id="stop1731" />
      <stop
         stop-opacity=".33735"
         offset=".5"
         id="stop1733" />
      <stop
         stop-opacity=".10843"
         offset=".75"
         id="stop1735" />
      <stop
         stop-opacity=".039216"
         offset=".875"
         id="stop1737" />
      <stop
         stop-opacity="0"
         offset="1"
         id="stop1739" />
    </linearGradient>
    <linearGradient
       id="linearGradient6612-5"
       x1="396"
       x2="396"
       y1="66"
       y2="30"
       gradientTransform="translate(200,5)"
       gradientUnits="userSpaceOnUse"
       xlink:href="#shadow_inactive" />
    <linearGradient
       id="linearGradient1126"
       x1="348.49"
       x2="279.41"
       y1="99"
       y2="99"
       gradientTransform="matrix(1.0133 0 0 1 -3.265 140)"
       gradientUnits="userSpaceOnUse"
       xlink:href="#shadow_active" />
    <radialGradient
       id="radialGradient1306"
       cx="296.48"
       cy="80.417"
       r="17.5"
       gradientTransform="matrix(9.492e-7 -2.9143 4 1.1504e-6 -211.67 980.02)"
       gradientUnits="userSpaceOnUse"
       xlink:href="#shadow_active" />
    <linearGradient
       id="linearGradient1389"
       x1="348.49"
       x2="304.09"
       y1="99.015"
       y2="99.015"
       gradientTransform="matrix(1.0133 0 0 1 -3.265 140)"
       gradientUnits="userSpaceOnUse"
       xlink:href="#shadow_inactive" />
    <radialGradient
       id="radialGradient965"
       cx="48.271"
       cy="178.72"
       r="17.5"
       gradientTransform="matrix(-4 3.2964e-6 1.0209e-6 -4.8 303.08 1053.9)"
       gradientUnits="userSpaceOnUse"
       xlink:href="#shadow_active" />
    <radialGradient
       id="radialGradient967"
       cx="48.271"
       cy="181.18"
       r="17.5"
       gradientTransform="matrix(-2.5714 8.72e-7 -2.0148e-7 -1.9429 594.13 548)"
       gradientUnits="userSpaceOnUse"
       xlink:href="#shadow_inactive" />
    <radialGradient
       id="radialGradient969"
       cx="296.45"
       cy="80.417"
       r="17.5"
       gradientTransform="matrix(-3.7608e-7 -2.0571 2.5714 -5.1233e-7 263.21 725.83)"
       gradientUnits="userSpaceOnUse"
       xlink:href="#shadow_inactive" />
  </defs>
  <g
     transform="translate(0,-90)"
     id="g1869">
    <g
       id="decoration-inactive-center">
      <path
         d="m470 200v86h145v-86z"
         fill="#1c1c1c"
         opacity=".8"
         id="path1751" />
      <path
         d="m470 200v86h145v-86z"
         opacity=".35"
         id="path1753" />
    </g>
    <g
       id="decoration-inactive-topleft"
       transform="translate(140,-31.063)">
      <path
         transform="translate(-140 115.06)"
         d="m365 50v66h76v-18c0-6.648 5.352-12 12-12h17v-36z"
         fill="url(#radialGradient969)"
         opacity=".5"
         id="path1756" />
      <g
         transform="translate(0,1)"
         id="g1764">
        <g
           transform="translate(-19,25)"
           id="g1762">
          <path
             transform="translate(-121,89.063)"
             d="m453 86c-6.648 0-12 5.352-12 12v18h29v-30z"
             fill="#1c1c1c"
             opacity=".8"
             id="path1758" />
          <path
             transform="translate(-121,89.063)"
             d="m453 86c-6.648 0-12 5.352-12 12v18h29v-30z"
             opacity=".35"
             id="path1760" />
        </g>
      </g>
    </g>
    <g
       id="decoration-right"
       transform="matrix(-1 0 0 1 604.88 3)">
      <path
         d="m244.88 197v86h76v-86z"
         fill="url(#linearGradient1126)"
         opacity=".5"
         id="path1767" />
      <path
         transform="translate(-255.12 76)"
         d="m576 121v86h29v-86z"
         fill="#212121"
         opacity=".8"
         id="path1769" />
      <path
         transform="translate(-255.12 76)"
         d="m576 121v86h29v-86z"
         opacity=".35"
         id="path1771" />
    </g>
    <g
       id="decoration-bottom"
       transform="translate(-215,9)">
      <path
         d="m325 289v86h145v-86z"
         fill="url(#linearGradient5688)"
         opacity=".5"
         id="path1774" />
      <path
         d="m470 277h-145v12h145z"
         fill="#212121"
         opacity=".8"
         id="path1776" />
    </g>
    <g
       id="decoration-top"
       transform="translate(-215 -6)">
      <path
         transform="translate(215 90)"
         d="m110 50v36h145v-36z"
         fill="url(#linearGradient6612)"
         opacity=".5"
         id="path1779" />
      <path
         d="m325 176v30h145v-30z"
         fill="#212121"
         opacity=".8"
         id="path1781" />
      <path
         d="m325 176v1h145v-1z"
         fill="#fff"
         opacity=".1"
         id="path1783" />
      <path
         d="m325 176v30h145v-30z"
         opacity=".35"
         id="path1785" />
    </g>
    <g
       id="decoration-left"
       transform="translate(-239.88 3)">
      <path
         d="m244.88 197v86h76v-86z"
         fill="url(#linearGradient1126)"
         opacity=".5"
         id="path1788" />
      <path
         transform="translate(-255.12 76)"
         d="m576 121v86h29v-86z"
         fill="#212121"
         opacity=".8"
         id="path1790" />
      <path
         transform="translate(-255.12 76)"
         d="m576 121v86h29v-86z"
         opacity=".35"
         id="path1792" />
    </g>
    <g
       id="decoration-inactive-bottom"
       transform="translate(145 9.078)">
      <path
         d="m325 288.92v86h145v-86z"
         fill="url(#linearGradient5688-2)"
         opacity=".5"
         id="path1795" />
      <path
         d="m470 276.92h-145v12h145z"
         fill="#1c1c1c"
         opacity=".8"
         id="path1797" />
    </g>
    <g
       id="decoration-inactive-top"
       transform="translate(145,-6)">
      <path
         transform="translate(-200,135)"
         d="m525 5v36h145v-36z"
         fill="url(#linearGradient6612-5)"
         opacity=".5"
         id="path1800" />
      <path
         d="m325 176v30h145v-30z"
         fill="#1c1c1c"
         opacity=".8"
         id="path1802" />
      <path
         d="m325 176v30h145v-30z"
         opacity=".35"
         id="path1804" />
    </g>
    <g
       id="decoration-inactive-left"
       transform="translate(120.12 2.9845)">
      <path
         d="m244.88 197.02v86l76-0.0155v-85.985z"
         fill="url(#linearGradient1389)"
         opacity=".5"
         id="path1807" />
      <path
         d="m320.88 197.02v86h29v-86z"
         fill="#1c1c1c"
         opacity=".8"
         id="path1809" />
      <path
         d="m320.88 197.02v86h29v-86z"
         opacity=".35"
         id="path1811" />
    </g>
    <g
       id="decoration-bottomleft"
       transform="translate(-385 -4)">
      <path
         transform="translate(385 94)"
         d="m81 196c0 6.648 5.352 12 12 12h17v-12h-29z"
         fill="#212121"
         opacity=".8"
         id="path1814" />
      <g
         transform="matrix(1 0 0 .99932 165 -10.667)"
         id="g1820">
        <path
           transform="matrix(1 0 0 1.0007 220 104.74)"
           d="m5 196v98h105v-86h-17c-6.648 0-12-5.352-12-12h-76z"
           fill="url(#radialGradient965)"
           opacity=".5"
           id="path1816" />
        <g
           transform="translate(-20,24)"
           id="g1818" />
      </g>
    </g>
    <g
       id="decoration-inactive-bottomleft">
      <path
         transform="translate(0,90)"
         d="m441 196c0 6.648 5.352 12 12 12h17v-12z"
         fill="#1c1c1c"
         opacity=".8"
         id="path1823" />
      <g
         transform="matrix(1 0 0 .99932 140 -14.604)"
         id="g1829">
        <path
           transform="matrix(1 0 0 1.0007 -140 104.68)"
           d="m365 196v98h105v-86h-17c-6.648 0-12-5.352-12-12z"
           fill="url(#radialGradient967)"
           opacity=".5"
           id="path1825" />
        <g
           transform="translate(-20,24)"
           id="g1827" />
      </g>
    </g>
    <rect
       id="shadow-hint-top-margin"
       x="174"
       y="134"
       width="4"
       height="36"
       fill="#f0f" />
    <rect
       id="shadow-hint-bottom-margin"
       x="175"
       y="298"
       width="4"
       height="86"
       fill="#f0f" />
    <rect
       id="shadow-hint-right-margin"
       x="284"
       y="230"
       width="76"
       height="4"
       fill="#f0f" />
    <rect
       id="shadow-hint-left-margin"
       x="5"
       y="224"
       width="76"
       height="4"
       fill="#f0f" />
    <rect
       id="hint-top-margin"
       x="186"
       y="134"
       width="4"
       height="66"
       fill="#00ff29" />
    <rect
       id="hint-bottom-margin"
       x="187"
       y="286"
       width="4"
       height="98"
       fill="#00ff29" />
    <rect
       id="hint-right-margin"
       transform="rotate(90)"
       x="219"
       y="-360"
       width="4"
       height="105"
       fill="#00ff29" />
    <rect
       id="hint-left-margin"
       transform="rotate(90)"
       x="216"
       y="-110"
       width="4"
       height="105"
       fill="#00ff29" />
    <g
       id="decoration-topleft"
       transform="matrix(-1 0 0 1 535 -31.062)">
      <path
         transform="matrix(-1 0 0 1 535 115.06)"
         d="m5 50v66h76v-18c0-6.648 5.352-12 12-12h17v-36z"
         fill="url(#radialGradient1306)"
         opacity=".5"
         id="path1840" />
      <g
         transform="translate(250)"
         id="g1850">
        <g
           transform="matrix(-1,0,0,1,524,26)"
           id="g1848">
          <path
             transform="translate(239 89.062)"
             d="m93 86c-6.648 0-12 5.352-12 12v18h29v-30z"
             fill="#212121"
             opacity=".8"
             id="path1842" />
          <path
             transform="translate(239 95.062)"
             d="m93 80c-6.648 0-12 5.352-12 12v0.59961c0-6.4264 5.352-11.6 12-11.6h17v-1h-17z"
             fill="#fff"
             opacity=".1"
             id="path1844" />
          <path
             transform="translate(239 89.062)"
             d="m93 86c-6.648 0-12 5.352-12 12v18h29v-30z"
             opacity=".35"
             id="path1846" />
        </g>
      </g>
    </g>
    <g
       id="decoration-inactive-right"
       transform="matrix(-1 0 0 1 964.88 2.9845)">
      <path
         d="m244.88 197.02v86l76-0.0155v-85.985z"
         fill="url(#linearGradient1389)"
         opacity=".5"
         id="path1853" />
      <path
         d="m320.88 197.02v86h29v-86z"
         fill="#1c1c1c"
         opacity=".8"
         id="path1855" />
      <path
         d="m320.88 197.02v86h29v-86z"
         opacity=".35"
         id="path1857" />
    </g>
    <use
       id="decoration-topright"
       transform="matrix(-1,0,0,1,365,0)"
       width="100%"
       height="100%"
       xlink:href="#decoration-topleft" />
    <use
       id="decoration-inactive-topright"
       transform="matrix(-1,0,0,1,1085,0)"
       width="100%"
       height="100%"
       xlink:href="#decoration-inactive-topleft" />
    <use
       id="decoration-bottomright"
       transform="matrix(-1,0,0,1,365,0)"
       width="100%"
       height="100%"
       xlink:href="#decoration-bottomleft" />
    <use
       id="decoration-inactive-bottomright"
       transform="matrix(-1,0,0,1,1085,0)"
       width="100%"
       height="100%"
       xlink:href="#decoration-inactive-bottomleft" />
    <g
       id="decoration-center">
      <path
         d="m110 200v86h145v-86z"
         fill="#212121"
         opacity=".8"
         id="path1864" />
      <path
         d="m110 200v86h145v-86z"
         opacity=".35"
         id="path1866" />
    </g>
    <use
       id="mask-bottomright"
       transform="matrix(-1,0,0,1,-445,0)"
       width="100%"
       height="100%"
       xlink:href="#mask-bottomleft"
       x="0"
       y="0" />
    <g
       id="mask-bottom"
       transform="translate(-620,9)">
      <path
         d="m 325,289 v 86 h 145 v -86 z"
         fill="none"
         id="path2085" />
      <path
         d="M 470,277 H 325 v 12 h 145 z"
         fill="#212121"
         id="path2087" />
    </g>
    <g
       id="mask-bottomleft"
       transform="translate(-790,-4)">
      <path
         transform="matrix(1,0,0,1.0000195,385,94.001777)"
         d="m 5,196 v 98 H 110 V 208 H 93 c -6.648,0 -12,-5.352 -12,-12 z"
         id="path2107"
         fill="none" />
      <path
         d="m 466,290 c 0,6.648 5.352,12 12,12 h 17 v -12 z"
         fill="#212121"
         id="path2105" />
    </g>
    <g
       id="mask-right"
       transform="matrix(-1,0,0,1,199.88,3)">
      <path
         d="m 244.88,197 v 86 h 76 v -86 z"
         fill="none"
         id="path2079" />
      <path
         transform="translate(-255.12,76)"
         d="m 576,121 v 86 h 29 v -86 z"
         fill="#212121"
         id="path2081" />
    </g>
    <g
       id="mask-center"
       transform="translate(-405)">
      <path
         d="m 110,200 v 86 h 145 v -86 z"
         fill="#212121"
         id="path2129" />
    </g>
    <g
       id="mask-left"
       transform="translate(-644.88,3)">
      <path
         d="m 244.88,197 v 86 h 76 v -86 z"
         fill="none"
         id="path2099" />
      <path
         transform="translate(-255.12,76)"
         d="m 576,121 v 86 h 29 v -86 z"
         fill="#212121"
         id="path2101" />
    </g>
    <use
       id="mask-topright"
       transform="matrix(-1,0,0,1,-445,0)"
       width="100%"
       height="100%"
       xlink:href="#mask-topleft"
       x="0"
       y="0" />
    <g
       id="mask-top"
       transform="translate(-620,-6)">
      <path
         transform="translate(215,90)"
         d="M 110,50 V 86 H 255 V 50 Z"
         fill="none"
         id="path2091" />
      <path
         d="m 325,176 v 30 h 145 v -30 z"
         fill="#212121"
         id="path2093" />
    </g>
    <g
       id="mask-topleft"
       transform="matrix(-1,0,0,1,130,-31.06)">
      <path
         transform="matrix(-1,0,0,1,535,115.06)"
         d="m 5,50 v 66 H 81 V 98 c 0,-6.648 5.352,-12 12,-12 h 17 V 50 Z"
         id="path2113"
         fill="none" />
      <path
         d="m 93,86 c -6.648,0 -12,5.352 -12,12 v 18 h 29 V 86 Z"
         id="path2115"
         transform="matrix(-1,0,0,1,535,115.062)"
         fill="#212121" />
    </g>
  </g>
</svg>
